<svg xmlns="http://www.w3.org/2000/svg" viewBox="0 0 128 128" role="img" aria-label="Tab Saver Icon">
  <defs>
    <linearGradient id="bg" x1="0" y1="0" x2="1" y2="1">
      <stop offset="0%" stop-color="#3b82f6"/>
      <stop offset="100%" stop-color="#1d4ed8"/>
    </linearGradient>
    <filter id="shadow" x="-20%" y="-20%" width="140%" height="140%">
      <feDropShadow dx="0" dy="4" stdDeviation="6" flood-color="#0f172a" flood-opacity="0.18"/>
    </filter>
  </defs>

  <rect x="8" y="8" width="112" height="112" rx="24" fill="url(#bg)"/>

  <g filter="url(#shadow)">
    <rect x="28" y="34" width="52" height="38" rx="8" fill="#dbeafe" opacity="0.75"/>
    <rect x="38" y="28" width="52" height="38" rx="8" fill="#bfdbfe" opacity="0.9"/>
    <rect x="48" y="22" width="52" height="38" rx="8" fill="#ffffff"/>

    <circle cx="58" cy="32" r="2.5" fill="#93c5fd"/>
    <circle cx="66" cy="32" r="2.5" fill="#93c5fd"/>
    <circle cx="74" cy="32" r="2.5" fill="#93c5fd"/>

    <rect x="56" y="40" width="36" height="4" rx="2" fill="#93c5fd"/>
    <rect x="56" y="48" width="26" height="4" rx="2" fill="#bfdbfe"/>
  </g>

  <g filter="url(#shadow)">
    <circle cx="88" cy="86" r="22" fill="#22c55e"/>
    <path d="M87 73c1.7 0 3 1.3 3 3v8.6l5.6 3.8a3 3 0 1 1-3.4 5l-6.9-4.7A3 3 0 0 1 84 86V76c0-1.7 1.3-3 3-3z" fill="#ffffff"/>
  </g>
</svg>